# xmcd CD database file
#
# Track frame offsets:
#	150
#	13570
#	36672
#	50953
#	65496
#	84089
#	96899
#	116751
#	132307
#	145547
#	159462
#	173527
#	187686
#	200213
#	214006
#	227874
#	241292
#	258854
#
# Disc length: 3652 seconds
#
# Revision: 0
# Processed by: cddbd v1.5.1PL0 Copyright (c) Steve Scherf et al.
# Submitted via: CDex 1.51
#
DISCID=f80e4212
DTITLE=Lester Young - The Jazz
DYEAR=1900
DGENRE=Jazz
TTITLE0=D.B. Blues
TTITLE1=Body and Soul
TTITLE2=These Foolish things
TTITLE3=Lester leaps in
TTITLE4=I got rythm
TTITLE5=Taxi war dance
TTITLE6=Lester leaps again
TTITLE7=Gost of Chance
TTITLE8=Countless Blues
TTITLE9=Sometimes I am Happy
TTITLE10=Oh, Lady be good
TTITLE11=You can depend on me
TTITLE12=Jive at five
TTITLE13=I'll never be the same
TTITLE14=Texas Shuffle
TTITLE15=Shoe Shine Swing
TTITLE16=Back to the Land
TTITLE17=Blues Lester
EXTD=
EXTT0=
EXTT1=
EXTT2=
EXTT3=
EXTT4=
EXTT5=
EXTT6=
EXTT7=
EXTT8=
EXTT9=
EXTT10=
EXTT11=
EXTT12=
EXTT13=
EXTT14=
EXTT15=
EXTT16=
EXTT17=
PLAYORDER=
